<svg width="76" height="76" viewBox="0 0 76 76" fill="none" xmlns="http://www.w3.org/2000/svg">
<g clip-path="url(#clip0_32_1426)">
<rect width="76" height="76" rx="38" fill="#83AA7D"/>
<path d="M56.3665 40.4067C58.4216 33.5816 59.6882 21.9133 51.0465 13.9333C44.4421 7.83459 26.5999 7.22 20.3932 20.52C19.3571 22.7402 20.7732 26.22 23.5599 26.0933C24.655 26.0427 25.3332 29.5133 25.9665 31.6667C25.0799 40.4067 17.1804 40.568 13.1732 47.2467C8.23322 55.48 14.3132 67.64 28.8799 67.64C43.4465 67.64 51.7969 55.5826 56.3665 40.4067Z" fill="url(#paint0_linear_32_1426)"/>
<path d="M61.3065 60.401C63.1642 63.9791 64.0932 77.0133 64.0932 77.0133H11.9065C11.9065 77.0133 12.8355 63.9791 14.6932 60.401C17.4798 55.0339 37.9998 48.1333 37.9998 48.1333C37.9998 48.1333 58.5198 55.0339 61.3065 60.401Z" fill="url(#paint1_linear_32_1426)"/>
<path d="M44.0799 51.1733C44.0799 51.1733 40.8459 52.9467 37.8707 52.9467C34.8956 52.9467 31.9199 51.1733 31.9199 51.1733V45.6C31.2799 45.7012 30.6315 45.7397 29.984 45.715C23.907 45.7145 21.6156 36.8628 22.7999 26.0933C23.5599 26.0933 25.3333 26.0933 27.8666 22.5467C27.2333 27.4867 34.5799 26.7267 37.3666 22.8C35.9733 27.4867 39.6466 30.6533 42.8133 28.7533C49.0227 25.0276 50.4186 36.3853 44.0799 36.48V51.1733Z" fill="url(#paint2_linear_32_1426)"/>
<g style="mix-blend-mode:multiply" opacity="0.782">
<path d="M31.9199 45.6C35.0625 45.0214 38.0695 43.8616 40.7866 42.18C40.7866 42.18 37.6199 47.6267 31.9199 47.6267V45.6Z" fill="#FFD7B8"/>
</g>
<path d="M38.0083 52.687C39.8391 52.6042 44.0799 51.7074 44.0799 49.7699V48.1333C44.5445 48.1333 45.8748 49.2308 46.559 50.16C49.2636 53.8333 46.2637 57.1267 43.817 57.1267C40.7298 57.1267 38.6839 54.5472 37.9999 53.3064C37.3159 54.5477 35.27 57.1267 32.1829 57.1267C29.7362 57.1267 26.7362 53.8333 29.4408 50.16C30.1251 49.2308 31.4553 48.1333 31.9199 48.1333V49.7699C31.9199 51.7074 36.2752 52.6042 38.0083 52.687Z" fill="white"/>
<path d="M36.9866 69.92C36.9866 69.7196 37.046 69.5237 37.1573 69.357C37.2687 69.1904 37.427 69.0605 37.6121 68.9838C37.7973 68.9071 38.001 68.8871 38.1976 68.9261C38.3942 68.9652 38.5747 69.0618 38.7164 69.2035C38.8582 69.3452 38.9547 69.5258 38.9938 69.7223C39.0329 69.9189 39.0128 70.1226 38.9361 70.3078C38.8594 70.493 38.7295 70.6512 38.5629 70.7626C38.3962 70.8739 38.2003 70.9333 37.9999 70.9333C37.7312 70.9333 37.4734 70.8266 37.2834 70.6365C37.0933 70.4465 36.9866 70.1888 36.9866 69.92ZM36.9866 64.8533C36.9866 64.6529 37.046 64.457 37.1573 64.2904C37.2687 64.1237 37.427 63.9938 37.6121 63.9171C37.7973 63.8405 38.001 63.8204 38.1976 63.8595C38.3942 63.8986 38.5747 63.9951 38.7164 64.1368C38.8582 64.2785 38.9547 64.4591 38.9938 64.6557C39.0329 64.8522 39.0128 65.056 38.9361 65.2411C38.8594 65.4263 38.7295 65.5846 38.5629 65.6959C38.3962 65.8072 38.2003 65.8667 37.9999 65.8667C37.7312 65.8667 37.4734 65.7599 37.2834 65.5699C37.0933 65.3798 36.9866 65.1221 36.9866 64.8533ZM36.9866 59.7867C36.9866 59.5863 37.046 59.3903 37.1573 59.2237C37.2687 59.0571 37.427 58.9272 37.6121 58.8505C37.7973 58.7738 38.001 58.7537 38.1976 58.7928C38.3942 58.8319 38.5747 58.9284 38.7164 59.0701C38.8582 59.2119 38.9547 59.3924 38.9938 59.589C39.0329 59.7856 39.0128 59.9893 38.9361 60.1745C38.8594 60.3596 38.7295 60.5179 38.5629 60.6292C38.3962 60.7406 38.2003 60.8 37.9999 60.8C37.7312 60.8 37.4734 60.6933 37.2834 60.5032C37.0933 60.3132 36.9866 60.0554 36.9866 59.7867V59.7867Z" fill="url(#paint3_linear_32_1426)"/>
</g>
<defs>
<linearGradient id="paint0_linear_32_1426" x1="34.6767" y1="9.77573" x2="34.6767" y2="67.64" gradientUnits="userSpaceOnUse">
<stop stop-color="#130027"/>
<stop offset="1" stop-color="#130017"/>
</linearGradient>
<linearGradient id="paint1_linear_32_1426" x1="37.9998" y1="77.0133" x2="37.9998" y2="48.1333" gradientUnits="userSpaceOnUse">
<stop stop-color="#C4FF78"/>
<stop offset="1" stop-color="#C4FF78"/>
</linearGradient>
<linearGradient id="paint2_linear_32_1426" x1="35.3517" y1="22.5467" x2="35.3517" y2="52.9467" gradientUnits="userSpaceOnUse">
<stop stop-color="#FFE0CC"/>
<stop offset="1" stop-color="#FFEADB"/>
</linearGradient>
<linearGradient id="paint3_linear_32_1426" x1="37.9999" y1="58.7733" x2="37.9999" y2="70.9333" gradientUnits="userSpaceOnUse">
<stop stop-color="#130027"/>
<stop offset="1" stop-color="#130017"/>
</linearGradient>
<clipPath id="clip0_32_1426">
<rect width="76" height="76" rx="38" fill="white"/>
</clipPath>
</defs>
</svg>
